<?xml version="1.0" encoding="UTF-8"?>
<svg width="128px" height="128px" viewBox="0 0 128 128" version="1.1" xmlns="http://www.w3.org/2000/svg" xmlns:xlink="http://www.w3.org/1999/xlink">
    <title>Plotify Logo</title>
    <defs>
        <linearGradient x1="50%" y1="0%" x2="50%" y2="100%" id="linearGradient-1">
            <stop stop-color="#DA99FF" stop-opacity="0.5" offset="0%"></stop>
            <stop stop-color="#000000" stop-opacity="0.5" offset="100%"></stop>
        </linearGradient>
        <circle id="path-2" cx="64" cy="64" r="64"></circle>
    </defs>
    <g id="Page-1" stroke="none" stroke-width="1" fill="none" fill-rule="evenodd">
        <g id="Group">
            <g id="BG">
                <use fill="#2D0444" xlink:href="#path-2"></use>
                <use fill="url(#linearGradient-1)" xlink:href="#path-2"></use>
            </g>
            <g id="plotify" transform="translate(22.000000, 18.000000)" stroke="#FFFFFF" stroke-width="2">
                <path d="M14.6394666,5.95518889 C0.12962651,20.0587574 8.82892109,49.7379253 36.1988957,49.6747309 C60.3830561,49.6188923 75.593341,42.5504021 81.8297503,28.4692604 C78.9863325,15.7656007 75.8024243,7.07102023 72.2780255,2.38551899 C69.7208289,4.14539563 67.5089959,6.73059731 65.6425263,10.141124 C60.8486752,11.4249404 56.2230738,12.3217411 51.7657222,12.8315263 C45.0796947,13.5962042 30.6057059,13.7540349 23.6663131,13.5822041 C20.8352751,10.141124 17.9861147,7.67777305 14.6394666,5.95518889 Z" id="Path-3"></path>
                <path d="M10.0477129,12.2415472 C3.73640292,20.8460408 0.686561185,33.0882526 0.898187713,48.9681826 C1.10981424,64.8481125 6.28267981,77.4899154 16.4167844,86.893591 C21.391177,89.1884835 27.1255544,90.3236419 33.6199166,90.2990663 C40.1142787,90.2744907 46.6764549,89.5764268 53.3064451,88.2048745 C58.7853507,77.6262514 62.6983954,68.8074164 65.0455791,61.7483694 C67.3927628,54.6893225 68.1591427,48.5556087 67.3447185,43.3472282" id="Path-4"></path>
                <path d="M55.9845145,83.3204751 C61.7813839,83.0457701 66.3160545,82.1826986 69.5885264,80.7312607 C72.8609984,79.2798228 76.6165924,76.4659173 80.8553084,72.289544 C81.9130925,68.7872383 82.6847693,62.7986926 83.170339,54.3239068 C83.6559086,45.849121 83.2165317,37.2602636 81.8522083,28.5573345" id="Path-5"></path>
                <path d="M50.5196394,25.4265185 C42.9095004,14.623499 26.2451249,17.5847604 25.7567049,30.0028453 C25.2682849,42.4209301 42.2776046,46.815185 51.8420129,33.3293275 C55.2514215,37.0419977 66.3337533,36.6759969 66.3337533,27.7603223 C66.3337533,18.8446477 53.2389234,17.273565 50.5196394,25.4265185 Z" id="Path-6"></path>
                <polyline id="Path-7" points="49.5079167 36.0408523 49.512075 41.8991884 52.9092069 44.017078 54.8550603 41.8991884 54.8509019 35.1988568"></polyline>
            </g>
        </g>
    </g>
</svg>
